<svg xmlns="http://www.w3.org/2000/svg" xmlns:xlink="http://www.w3.org/1999/xlink" viewBox="0 0 750 500"><defs><style>.cls-1,.cls-26,.cls-30,.cls-4{fill:none;}.cls-2{isolation:isolate;}.cls-21,.cls-29,.cls-3,.cls-5{fill:#3d4381;}.cls-4{stroke:#ede3fc;stroke-width:0.73px;}.cls-26,.cls-27,.cls-30,.cls-4{stroke-miterlimit:10;}.cls-14,.cls-23,.cls-31,.cls-36,.cls-37,.cls-5{opacity:0.3;}.cls-12,.cls-13,.cls-14,.cls-21,.cls-23,.cls-29,.cls-31,.cls-36,.cls-37,.cls-5,.cls-6{mix-blend-mode:multiply;}.cls-24,.cls-6{fill:#2c1c3f;}.cls-12,.cls-6{opacity:0.2;}.cls-7{clip-path:url(#clip-path);}.cls-8{fill:#ede3fc;}.cls-9{clip-path:url(#clip-path-2);}.cls-10,.cls-31{fill:#2f376d;}.cls-11,.cls-12,.cls-13,.cls-14{fill:#472872;}.cls-13{opacity:0.5;}.cls-15,.cls-27,.cls-37{fill:#f4564a;}.cls-16,.cls-36{fill:#ffbf51;}.cls-17,.cls-19,.cls-20,.cls-28{fill:#fff;}.cls-17{opacity:0.6;}.cls-18{clip-path:url(#clip-path-3);}.cls-19{opacity:0.1;}.cls-21{opacity:0.4;}.cls-22,.cls-23{fill:#f9bdb4;}.cls-25{fill:#f4978e;}.cls-26,.cls-27{stroke:#fff;stroke-width:1.14px;}.cls-28{opacity:0.05;}.cls-30{stroke:#3d4381;stroke-width:0.98px;}.cls-32{clip-path:url(#clip-path-4);}.cls-33{clip-path:url(#clip-path-5);}.cls-34{clip-path:url(#clip-path-6);}.cls-35{clip-path:url(#clip-path-7);}</style><clipPath id="clip-path"><path class="cls-1" d="M325.66,218.1l101.62-56.44a4,4,0,0,1,5.43,1.46l3.09,5.15a4,4,0,0,1-1.5,5.61L332.48,230.41a4,4,0,0,1-5.5-1.58l-2.89-5.24A4,4,0,0,1,325.66,218.1Z"/></clipPath><clipPath id="clip-path-2"><path class="cls-1" d="M403.77,128.8,317.86,207a4.05,4.05,0,0,0-.31,5.67l4,4.57a4,4,0,0,0,5.67.4L415.54,142a4,4,0,0,0,.38-5.78l-6.42-7.14A4,4,0,0,0,403.77,128.8Z"/></clipPath><clipPath id="clip-path-3"><path class="cls-1" d="M672.92,232.78H529a5.11,5.11,0,0,1-5.2-4.52l-7.54-85a5.05,5.05,0,0,1,5.22-5.34l160.05.36a5.05,5.05,0,0,1,5.19,5.39l-8.55,84.69A5.12,5.12,0,0,1,672.92,232.78Z"/></clipPath><clipPath id="clip-path-4"><rect class="cls-1" x="605.78" y="394.86" width="34.11" height="38.37" transform="translate(75.58 923.82) rotate(-76.58)"/></clipPath><clipPath id="clip-path-5"><rect class="cls-1" x="565.42" y="385.21" width="34.11" height="38.37" transform="translate(54.02 877.2) rotate(-76.59)"/></clipPath><clipPath id="clip-path-6"><rect class="cls-1" x="525.08" y="375.59" width="34.11" height="38.37" transform="translate(32.38 830.56) rotate(-76.59)"/></clipPath><clipPath id="clip-path-7"><rect class="cls-1" x="484.8" y="365.98" width="34.11" height="38.37" transform="translate(10.78 783.98) rotate(-76.59)"/></clipPath></defs><title>Artboard 10</title><g class="cls-2"><g id="Objects"><path class="cls-3" d="M467.88,230.1,364.71,287.84a4,4,0,0,1-5.51-1.55l-34.91-62.38a4.05,4.05,0,0,1,1.56-5.51l101.41-56.75a4,4,0,0,1,5.45,1.45l36.67,61.4A4,4,0,0,1,467.88,230.1Z"/><path class="cls-4" d="M454.75,227.91l-83.16,46.54A3.74,3.74,0,0,1,366.5,273l-20.05-35.83a3.74,3.74,0,0,1,1.43-5.09l83.17-46.54a3.74,3.74,0,0,1,5.09,1.43l20.05,35.83A3.74,3.74,0,0,1,454.75,227.91Z"/><line class="cls-4" x1="389.55" y1="208.98" x2="413.34" y2="251.49"/><line class="cls-4" x1="348.64" y1="241.35" x2="438.44" y2="191.1"/><line class="cls-4" x1="364.87" y1="269.62" x2="454.25" y2="219.6"/><line class="cls-4" x1="400.76" y1="219.27" x2="436.16" y2="199.46"/><line class="cls-4" x1="406.75" y1="229.96" x2="442.15" y2="210.15"/><path class="cls-5" d="M467.9,230.09,364.71,287.84a4,4,0,0,1-5.51-1.55l-4.46-8a4,4,0,0,1,2-5.73c29-11.47,54.53-32.19,69.23-61.3,7.86-15.38,8.25-33.36-.82-48.47l2.11-1.18a4,4,0,0,1,5.39,1.44l36.72,61.34A4.09,4.09,0,0,1,467.9,230.09Z"/><path class="cls-6" d="M326.59,219.76l101.5-56.37A4,4,0,0,1,433.6,165l2.89,5.24a4.05,4.05,0,0,1-1.58,5.49l-101.5,56.37a4,4,0,0,1-5.5-1.58l-2.9-5.24A4.05,4.05,0,0,1,326.59,219.76Z"/><path class="cls-3" d="M325.66,218.1l101.61-56.44a4,4,0,0,1,5.44,1.48l3.07,5.16a4,4,0,0,1-1.52,5.6L332.48,230.41a4,4,0,0,1-5.5-1.58l-2.89-5.24A4,4,0,0,1,325.66,218.1Z"/><g class="cls-7"><polygon class="cls-8" points="318.38 217.46 321.98 212.93 372.65 233.67 369.05 238.2 318.38 217.46"/><polygon class="cls-8" points="330.09 206.96 333.68 202.42 384.35 223.17 380.76 227.7 330.09 206.96"/><polygon class="cls-8" points="341.79 196.45 345.39 191.92 396.06 212.66 392.46 217.19 341.79 196.45"/><polygon class="cls-8" points="353.5 185.95 357.1 181.41 407.77 202.16 404.17 206.69 353.5 185.95"/><polygon class="cls-8" points="365.21 175.44 368.8 170.91 419.48 191.65 415.88 196.19 365.21 175.44"/><polygon class="cls-8" points="376.91 164.94 380.51 160.41 431.18 181.15 427.58 185.68 376.91 164.94"/><polygon class="cls-8" points="388.62 154.44 392.21 149.9 442.89 170.64 439.29 175.18 388.62 154.44"/></g><path class="cls-3" d="M403.86,128.76l-86,78.25a4.05,4.05,0,0,0-.31,5.67l4,4.57a4,4,0,0,0,5.67.4l88.28-75.71a4.06,4.06,0,0,0,.39-5.76l-6.33-7.12A4,4,0,0,0,403.86,128.76Z"/><g class="cls-9"><polygon class="cls-8" points="407.09 123.37 401.61 125.23 404.07 179.93 409.55 178.07 407.09 123.37"/><polygon class="cls-8" points="393.26 130.85 387.78 132.71 390.24 187.41 395.72 185.55 393.26 130.85"/><polygon class="cls-8" points="379.42 138.34 373.94 140.2 376.4 194.89 381.88 193.03 379.42 138.34"/><polygon class="cls-8" points="365.59 145.82 360.11 147.68 362.57 202.38 368.05 200.52 365.59 145.82"/><polygon class="cls-8" points="351.75 153.31 346.27 155.16 348.73 209.86 354.21 208 351.75 153.31"/><polygon class="cls-8" points="337.92 160.79 332.44 162.65 334.9 217.34 340.38 215.49 337.92 160.79"/><polygon class="cls-8" points="324.08 168.27 318.61 170.13 321.06 224.83 326.54 222.97 324.08 168.27"/></g><path class="cls-10" d="M317.85,209.77l18.46.79a1.61,1.61,0,0,1,1.48,2l-5.63,19.76a1.6,1.6,0,0,1-2.9.41l-12.84-20.55A1.61,1.61,0,0,1,317.85,209.77Z"/><path class="cls-8" d="M334.63,213.6a1.47,1.47,0,1,1-2-.57A1.47,1.47,0,0,1,334.63,213.6Z"/><path class="cls-8" d="M321.25,212.08a1.47,1.47,0,1,1-2-.56A1.48,1.48,0,0,1,321.25,212.08Z"/><path class="cls-8" d="M331.27,227.24a1.47,1.47,0,1,1-2-.57A1.48,1.48,0,0,1,331.27,227.24Z"/><polygon class="cls-11" points="574.41 353.32 544.62 353.32 542.82 305.43 576.21 305.43 574.41 353.32"/><path class="cls-12" d="M574.58,349l1.63-43.52H542.82l.62,16.6C558.86,322.29,570.17,334.64,574.58,349Z"/><path class="cls-11" d="M666.11,319.33H451.94a4.23,4.23,0,0,1-4.23-4.11l-4.27-155.05a4.23,4.23,0,0,1,4.23-4.35H670.39a4.24,4.24,0,0,1,4.23,4.35l-4.27,155.05A4.24,4.24,0,0,1,666.11,319.33Z"/><path class="cls-13" d="M674.62,160.17l-4.27,155a4.24,4.24,0,0,1-4.24,4.13H451.94a4.22,4.22,0,0,1-4.17-3.61H660.88a4.23,4.23,0,0,0,4.23-4.11l4.27-155a4.71,4.71,0,0,0,0-.75h1A4.24,4.24,0,0,1,674.62,160.17Z"/><polygon class="cls-8" points="458.54 309.47 454.58 165.68 663.48 165.68 659.52 309.47 458.54 309.47"/><path class="cls-11" d="M603.13,363.08H515.91a3.07,3.07,0,0,1-3.08-3.08v-2.78a3.08,3.08,0,0,1,3-3.08L603,351.61a3.09,3.09,0,0,1,3.16,3.08V360A3.07,3.07,0,0,1,603.13,363.08Z"/><path class="cls-14" d="M606.21,354.69V360a3.1,3.1,0,0,1-3.09,3.09H515.91a3.09,3.09,0,0,1-3.08-3.09v-2.72a3.06,3.06,0,0,0,2.95,2.24H603a3.07,3.07,0,0,0,3.07-3.08v-2.62A3.1,3.1,0,0,1,606.21,354.69Z"/><path class="cls-15" d="M672.92,232.78H529a5.11,5.11,0,0,1-5.2-4.52l-7.54-85a5.05,5.05,0,0,1,5.22-5.34l160.05.36a5.05,5.05,0,0,1,5.19,5.39l-8.55,84.69A5.12,5.12,0,0,1,672.92,232.78Z"/><path class="cls-16" d="M638.65,184.29c0,18.16-15.61,32.89-34.88,32.89s-34.88-14.73-34.88-32.89,15.62-32.89,34.88-32.89S638.65,166.12,638.65,184.29Z"/><polygon class="cls-17" points="592.3 161.63 630.23 185.98 592.3 206.95 592.3 161.63"/><g class="cls-18"><rect class="cls-19" x="572.41" y="119.06" width="6.55" height="134.87" transform="translate(93.53 -179.18) rotate(19.23)"/><rect class="cls-19" x="593.29" y="119.42" width="8.76" height="134.87" transform="translate(94.96 -186.52) rotate(19.24)"/><rect class="cls-19" x="612.12" y="125.26" width="14.36" height="134.87" transform="translate(98.07 -193.3) rotate(19.24)"/></g><polygon class="cls-20" points="522.8 303.32 470.21 302.89 465.94 175.84 513.05 175.38 522.8 303.32"/><polygon class="cls-20" points="649.89 277.73 526.06 278 524.23 252.17 652.12 252.6 649.89 277.73"/><polygon class="cls-20" points="648.44 300.44 527.01 300.4 526.06 281.81 650.04 282.38 648.44 300.44"/><rect class="cls-20" x="527.33" y="237.72" width="152.96" height="5.8"/><polygon class="cls-15" points="530.46 238.43 534.11 240.92 530.46 243.06 530.46 238.43"/><rect class="cls-11" x="537.57" y="239.86" width="135.85" height="1.49"/><path class="cls-11" d="M576,240.8a2.83,2.83,0,1,1-2.82-2.83A2.82,2.82,0,0,1,576,240.8Z"/><polygon class="cls-11" points="647.37 272.59 530.3 272.59 529.44 255.24 647.37 255.24 647.37 272.59"/><rect class="cls-20" x="545.23" y="254.17" width="0.66" height="19.64"/><rect class="cls-20" x="587.05" y="253.44" width="0.65" height="19.64"/><rect class="cls-20" x="614.55" y="254.17" width="0.65" height="19.64"/><polygon class="cls-15" points="485.13 199.14 470.52 199.01 469.29 180.48 483.65 180.48 485.13 199.14"/><rect class="cls-11" x="485.99" y="181.21" width="24.55" height="1.47"/><rect class="cls-11" x="486.85" y="186.13" width="24.55" height="1.47"/><rect class="cls-11" x="487.21" y="191.53" width="24.55" height="1.47"/><polygon class="cls-15" points="486.97 230.19 472.36 230.07 471.13 211.54 485.49 211.54 486.97 230.19"/><rect class="cls-11" x="487.83" y="212.27" width="24.55" height="1.47"/><rect class="cls-11" x="488.69" y="217.18" width="24.55" height="1.47"/><rect class="cls-11" x="489.05" y="222.59" width="24.55" height="1.47"/><path class="cls-3" d="M485.1,393.38,345.45,429.81a10,10,0,0,1-12.18-7.14L307.15,322.54a10,10,0,0,1,7.14-12.17L453.94,274a10,10,0,0,1,12.17,7.13l26.12,100.13A10,10,0,0,1,485.1,393.38Z"/><path class="cls-21" d="M485.1,393.38,345.45,429.8a10,10,0,0,1-9.41-2.43,9.6,9.6,0,0,0,3.52-.27L479.2,390.68a10,10,0,0,0,7.14-12.17L460.22,278.38a9.79,9.79,0,0,0-2.79-4.7,10,10,0,0,1,8.68,7.4l26.13,100.13A10,10,0,0,1,485.1,393.38Z"/><rect class="cls-8" x="348.27" y="280.03" width="102.86" height="143.7" transform="translate(639.28 -123.7) rotate(75.38)"/><rect class="cls-20" x="352.01" y="285.25" width="95.37" height="133.25" transform="matrix(0.25, 0.97, -0.97, 0.25, 639.28, -123.7)"/><path class="cls-22" d="M402.84,357l-8.61,2.24-1.92-7.34a21.39,21.39,0,0,1,8.62-2.25Z"/><path class="cls-22" d="M400.11,350.51l-5.7,1.49A12.64,12.64,0,0,1,379,343l-4.06-15.57A12.64,12.64,0,0,1,384,312l5.71-1.49a12.65,12.65,0,0,1,15.43,9l4.06,15.57A12.64,12.64,0,0,1,400.11,350.51Z"/><path class="cls-22" d="M412.35,337.28l-1.4.37a2,2,0,0,1-2.45-1.44l-2-7.58a2,2,0,0,1,1.43-2.44l1.4-.37a4.21,4.21,0,0,1,5.12,3l.87,3.34A4.2,4.2,0,0,1,412.35,337.28Z"/><path class="cls-23" d="M410.44,335.75a0,0,0,0,1,0,0l-2-7.58,1.42-.42a2.25,2.25,0,0,1,2.73,1.6l.87,3.34a2.17,2.17,0,0,1-.24,1.69,2.21,2.21,0,0,1-1.36,1Z"/><path class="cls-22" d="M374.63,334.88l1.4-.37a2,2,0,0,1,2.45,1.44l2,7.58A2,2,0,0,1,379,346l-1.4.37a4.21,4.21,0,0,1-5.12-3l-.87-3.34A4.21,4.21,0,0,1,374.63,334.88Z"/><path class="cls-23" d="M376.56,344.51a2.23,2.23,0,0,1-2.16-1.67l-.87-3.34a2.24,2.24,0,0,1,1.6-2.72l1.4-.36,2,7.6-1.42.42A2.22,2.22,0,0,1,376.56,344.51Z"/><path class="cls-24" d="M408,332.1l-5.4-.94a11,11,0,0,1-8.95-12.72l.44-2.53,5.39.94a11,11,0,0,1,9,12.72Z"/><path class="cls-24" d="M396.19,329.42l-4.61,3a11,11,0,0,1-15.2-3.31L375,326.91l4.61-3a11,11,0,0,1,15.19,3.31Z"/><rect class="cls-24" x="376.88" y="329.93" width="2.3" height="10.88" transform="translate(-72.29 106.05) rotate(-14.59)"/><path class="cls-15" d="M406.73,323.05l-31.88,8.32-1.68-6.43a13.36,13.36,0,0,1,9.55-16.3l6-1.58a13.38,13.38,0,0,1,16.31,9.56Z"/><path class="cls-15" d="M416.18,320.76l-18.56,4.66-2.07-8.22,10.35-2.6a8.47,8.47,0,0,1,10.28,6.16Z"/><path class="cls-15" d="M407.24,359.77l-15.69,4.09-1.91-7.34a69.88,69.88,0,0,1,15.68-4.09Z"/><path class="cls-24" d="M401.7,333.83a2.07,2.07,0,1,1-2.52-1.48A2.06,2.06,0,0,1,401.7,333.83Z"/><path class="cls-24" d="M389.15,337.1a2.06,2.06,0,1,1-2.52-1.48A2.07,2.07,0,0,1,389.15,337.1Z"/><path class="cls-25" d="M395.54,343.41l-.84.21a1.86,1.86,0,0,1-2.28-1.33l-1-3.69a1.87,1.87,0,0,1,1.33-2.28l.85-.22a1.86,1.86,0,0,1,2.27,1.33l1,3.7A1.87,1.87,0,0,1,395.54,343.41Z"/><path class="cls-20" d="M389.08,346.22l12.82-3.34s.61,4.79-5.41,6.36S389.08,346.22,389.08,346.22Z"/><rect class="cls-15" x="386.25" y="359.94" width="38.46" height="37.32" transform="translate(-82.44 114.61) rotate(-14.62)"/><path class="cls-15" d="M371.07,383l20.53-5.35a5.78,5.78,0,0,0,4.13-7.05l-.68-2.6a5.79,5.79,0,0,0-7.05-4.14l-20.52,5.36a5.79,5.79,0,0,0-4.14,7.05l.68,2.6A5.77,5.77,0,0,0,371.07,383Z"/><path class="cls-22" d="M433.57,333.92l-10.47,2.74-1.56-6a4.4,4.4,0,0,1,3.14-5.36l2-.52A4.4,4.4,0,0,1,432,328Z"/><path class="cls-22" d="M369.63,399l10.48-2.73,1.55,5.95a4.39,4.39,0,0,1-3.14,5.35l-2,.52a4.39,4.39,0,0,1-5.36-3.14Z"/><path class="cls-15" d="M437.7,365.68,417.18,371a5.77,5.77,0,0,1-7.05-4.13l-.68-2.6a5.77,5.77,0,0,1,4.13-7.05l20.53-5.36a5.78,5.78,0,0,1,7,4.13l.68,2.61A5.77,5.77,0,0,1,437.7,365.68Z"/><path class="cls-15" d="M427.94,361.23l-6.82-26.12,13.79-3.59,6.81,26.11a5.77,5.77,0,0,1-4.13,7.05l-2.61.68A5.78,5.78,0,0,1,427.94,361.23Z"/><path class="cls-15" d="M362.89,376.39l6.82,26.11,13.78-3.59-6.81-26.12a5.79,5.79,0,0,0-7.05-4.13l-2.61.69A5.78,5.78,0,0,0,362.89,376.39Z"/><polyline class="cls-26" points="387.56 370.86 369.57 375.65 374.61 396.7"/><path class="cls-27" d="M391.75,370a4.13,4.13,0,1,1-5-3A4.12,4.12,0,0,1,391.75,370Z"/><path class="cls-27" d="M373.24,375a4.13,4.13,0,1,1-5-3A4.14,4.14,0,0,1,373.24,375Z"/><path class="cls-26" d="M379.64,399.57a4.13,4.13,0,1,1-5-3A4.14,4.14,0,0,1,379.64,399.57Z"/><polyline class="cls-26" points="413.94 363.93 435.24 358.37 429.48 337.45"/><path class="cls-27" d="M417.94,362.88a4.13,4.13,0,1,1-5-2.95A4.13,4.13,0,0,1,417.94,362.88Z"/><path class="cls-27" d="M438.78,357.35a4.13,4.13,0,1,1-5-3A4.14,4.14,0,0,1,438.78,357.35Z"/><path class="cls-26" d="M432.46,332.4a4.13,4.13,0,1,1-5-2.95A4.13,4.13,0,0,1,432.46,332.4Z"/><path class="cls-3" d="M673.94,401.52l-.23.19c-12.33,10.62-26.19,4.25-31.86.32s-31.47-31.84-33.34-43.45S619,337.31,619,337.31l.37-.31s11.48-10.62,22.66-6.92,34.58,33.56,37.58,39.86S686.67,391,673.94,401.52Z"/><path class="cls-28" d="M642,330.08a17.13,17.13,0,0,0-9.13-.3c3.38,19.58,17.93,31.77,35.32,36.83a4.26,4.26,0,0,0,4.6-6.66C664.21,348.74,650,332.73,642,330.08Z"/><path class="cls-5" d="M646.46,387.94c-17.42-3.87-32-17.28-38-33.64a15.41,15.41,0,0,0,.08,4.28c1.87,11.61,27.61,39.49,33.34,43.45s19.53,10.3,31.86-.32l.23-.19c9.19-7.57,9.6-17.4,8-24.64C676,388.58,659.35,390.52,646.46,387.94Z"/><path class="cls-29" d="M651.49,373.92l-1,1a2.72,2.72,0,0,1-3.95,0l-26.44-28.07a2.71,2.71,0,0,1,.22-3.92l4-3.41a2.71,2.71,0,0,1,3.91.41l23.41,30.45A2.7,2.7,0,0,1,651.49,373.92Z"/><path class="cls-29" d="M636.08,354,633,356.64a.81.81,0,0,1-1.16-.09l-8.68-10.2a.83.83,0,0,1,.09-1.16l3.08-2.62a.82.82,0,0,1,1.16.09l8.68,10.2A.81.81,0,0,1,636.08,354Z"/><path class="cls-8" d="M634.3,354.12l-.92.78a1.47,1.47,0,0,1-2.08-.16l-6.14-7.21a1.47,1.47,0,0,1,.17-2.08l.92-.79a1.47,1.47,0,0,1,2.08.17l6.14,7.2A1.48,1.48,0,0,1,634.3,354.12Z"/><path class="cls-30" d="M621.73,340a25.9,25.9,0,0,1,2.51-28.83c5.42-6.47,14.08-8.68,21.8-12.09,26.32-11.63,38.22-27.76,41.28-35.38,13.88-34.66-35.09-28.59-18.51,8.18,15.65,34.71,43.12,22.79,58.48,22.21"/><path class="cls-11" d="M428.48,391.85h0a.28.28,0,0,1,0-.4l1-1.27c.11-.11.45.06.56.17h0c.11.12.27.47.15.57l-1.31.94A.28.28,0,0,1,428.48,391.85Z"/><path class="cls-11" d="M502.63,322.9l-2.31-2.4,7.13-6.85a4.35,4.35,0,0,1,2.31,2.41Z"/><path class="cls-10" d="M464.68,363.87,458,357l43.8-41.1c2.92,1.83,4.24,3.07,5.67,5.9Z"/><path class="cls-31" d="M458,357l6.65,6.92L490,339a46.7,46.7,0,0,1-22,8.66Z"/><path class="cls-11" d="M442.38,385.24l-6.7-7c6.62-5.6,14.33-13.37,22.72-21.83a14.32,14.32,0,0,1,6.7,7C457,370.87,449.36,378.18,442.38,385.24Z"/><path class="cls-14" d="M459.88,357.33c1.27,7.79-5.89,13.15-11.37,17.66a15,15,0,0,1-12.83,3.27h0l6.7,7c7-7.06,14.58-14.37,22.72-21.83A13.88,13.88,0,0,0,459.88,357.33Z"/><path class="cls-10" d="M430.07,391.12l-.43-.45-.41-.42,6.4-12a19.15,19.15,0,0,1,6.81,7.09Z"/><path class="cls-20" d="M449.43,368h0a1.29,1.29,0,0,1,0-1.83l5.63-5.4a1.28,1.28,0,0,1,1.82,0h0a1.29,1.29,0,0,1,0,1.82l-5.62,5.4A1.29,1.29,0,0,1,449.43,368Z"/><path class="cls-20" d="M441.16,376h0a1.28,1.28,0,0,1,0-1.82l5.62-5.4a1.28,1.28,0,0,1,1.82,0h0a1.28,1.28,0,0,1,0,1.82L443,376A1.29,1.29,0,0,1,441.16,376Z"/><path class="cls-19" d="M501.19,321.33l-16.5,15.42a1,1,0,0,1-1.39,0h0a1,1,0,0,1,.05-1.39l16.5-15.42a1,1,0,0,1,1.39,0h0A1,1,0,0,1,501.19,321.33Z"/><path class="cls-20" d="M489.16,355.66l-12,50.11L635.5,443.52l.52-2.19-1.64-.39.69-2.88,1.64.39L646.12,399l-1.64-.4.69-2.88,1.64.4.64-2.71ZM630.69,437,630,439.9l-4.78-1.14.69-2.88Zm-9.16-2.19-.68,2.88-4.79-1.13.69-2.89Zm-9.15-2.18-.69,2.88-4.78-1.14.68-2.88Zm-9.17-2.18-.68,2.87-4.78-1.14.68-2.87Zm-9.15-2.19-.69,2.88L588.59,430l.69-2.88Zm-9.16-2.18-.69,2.88-4.78-1.14.69-2.88Zm-9.16-2.19-.69,2.88-4.78-1.13.69-2.89Zm-9.16-2.18-.69,2.88-4.78-1.14.69-2.88Zm-9.16-2.19-.69,2.88L552,421.28l.68-2.88Zm-9.16-2.18-.68,2.88-4.79-1.14.69-2.88Zm-9.15-2.18-.69,2.88-4.78-1.14.68-2.89ZM530,413l-.69,2.88-4.78-1.14.68-2.88Zm-9.16-2.18-.69,2.88-4.78-1.14.69-2.88Zm-9.16-2.19-.69,2.89-4.78-1.15.69-2.88Zm-9.16-2.18-.69,2.88L497,408.18l.69-2.88Zm-9.16-2.19-.69,2.89L487.84,406l.69-2.88Zm-9.16-2.18-.69,2.88-4.78-1.14.69-2.88Zm156.64-7.39-.69,2.88-4.78-1.14.69-2.88Zm-9.16-2.18-.68,2.88-4.79-1.14.69-2.89Zm-9.16-2.19-.69,2.88L617,392.05l.69-2.88Zm-9.16-2.18-.68,2.88-4.79-1.14.69-2.88Zm-9.16-2.19-.68,2.89-4.78-1.15.68-2.88ZM595,383.76l-.68,2.88-4.78-1.14.68-2.88Zm-9.16-2.18-.68,2.88-4.78-1.14.68-2.88Zm-9.15-2.19-.69,2.88-4.78-1.14.68-2.88Zm-9.16-2.18-.69,2.88L562.05,379l.69-2.88ZM558.36,375l-.69,2.88-4.78-1.14.69-2.88Zm-9.16-2.18-.68,2.88-4.79-1.14.69-2.88ZM540,370.65l-.68,2.88-4.79-1.14.69-2.88Zm-9.16-2.18-.68,2.88-4.79-1.14.69-2.88Zm-9.16-2.18-.68,2.87L516.26,368l.68-2.89Zm-9.15-2.19-.69,2.88-4.78-1.14.69-2.88Zm-9.16-2.18-.69,2.88-4.78-1.14.69-2.88Zm-9.16-2.19-.69,2.88-4.78-1.14.69-2.88Z"/><rect class="cls-16" x="484.8" y="365.98" width="34.11" height="38.37" transform="translate(10.78 783.98) rotate(-76.59)"/><rect class="cls-15" x="525.08" y="375.59" width="34.11" height="38.37" transform="translate(32.38 830.56) rotate(-76.59)"/><rect class="cls-16" x="565.42" y="385.21" width="34.11" height="38.37" transform="translate(54.02 877.2) rotate(-76.59)"/><rect class="cls-15" x="605.78" y="394.86" width="34.11" height="38.37" transform="translate(75.58 923.82) rotate(-76.58)"/><g class="cls-32"><rect class="cls-19" x="612.61" y="374.52" width="4.25" height="71.03" transform="matrix(0.95, -0.32, 0.32, 0.95, -99.15, 219.25)"/><rect class="cls-19" x="623.62" y="375.25" width="8.85" height="71.03" transform="translate(-98.69 223.61) rotate(-18.74)"/></g><g class="cls-33"><rect class="cls-19" x="572.18" y="369.45" width="4.26" height="71.03" transform="translate(-99.64 205.92) rotate(-18.73)"/><rect class="cls-19" x="583.19" y="370.18" width="8.85" height="71.04" transform="translate(-99.14 210.14) rotate(-18.73)"/></g><g class="cls-34"><rect class="cls-19" x="533.55" y="361.26" width="4.26" height="71.04" transform="translate(-99.06 193.07) rotate(-18.73)"/><rect class="cls-19" x="544.56" y="362" width="8.85" height="71.03" transform="translate(-98.64 197.57) rotate(-18.75)"/></g><g class="cls-35"><rect class="cls-19" x="494.76" y="355.21" width="4.25" height="71.03" transform="translate(-99.15 180.25) rotate(-18.73)"/><rect class="cls-19" x="505.77" y="355.94" width="8.85" height="71.03" transform="translate(-98.68 184.56) rotate(-18.73)"/></g><path class="cls-16" d="M597,129.58c-4.74-1.94-12.11-1.34-20.25,0a57.86,57.86,0,0,0,0-26.31,37,37,0,0,1,20.25,0A76.7,76.7,0,0,1,597,129.58Z"/><path class="cls-36" d="M597,103.27l-.79-.2c-.07,12.33-8.33,20.85-19,24.12-.15.8-.3,1.6-.5,2.39,8.14-1.34,15.51-1.94,20.25,0A76.7,76.7,0,0,0,597,103.27Z"/><path class="cls-16" d="M274.37,388.72c2.93-4.21,3.95-11.53,4.41-19.76a58,58,0,0,0,25.68,5.74A36.92,36.92,0,0,1,300,394.46,76.56,76.56,0,0,1,274.37,388.72Z"/><path class="cls-36" d="M304.46,374.7a66.78,66.78,0,0,1-7-.39c-2.07,8.91-11.37,15.53-21,15.24A76.29,76.29,0,0,0,300,394.46,36.92,36.92,0,0,0,304.46,374.7Z"/><path class="cls-15" d="M678.41,327.32c-.69-5.08-4.89-11.16-10.11-17.54a57.94,57.94,0,0,0,22.79-13.14,36.85,36.85,0,0,1,10.11,17.54A76.48,76.48,0,0,1,678.41,327.32Z"/><path class="cls-37" d="M671.29,308.8c-1,.35-2,.68-3,1,5.22,6.38,9.42,12.46,10.11,17.54a77.27,77.27,0,0,0,18.53-9.85c-1.37.52-2.91.77-4.14,1.18C683.42,321.21,676.07,316.31,671.29,308.8Z"/><path class="cls-15" d="M429.39,111.93c5.07-.76,11.09-5.06,17.4-10.38a57.77,57.77,0,0,0,13.47,22.59,36.79,36.79,0,0,1-17.39,10.38A77,77,0,0,1,429.39,111.93Z"/><path class="cls-37" d="M444.88,120.1c-5,0-13.61-2.77-14.86-8.29-.21,0-.42.09-.63.12a77,77,0,0,0,13.48,22.59,36.79,36.79,0,0,0,17.39-10.38,63.46,63.46,0,0,1-4.17-4.89A32,32,0,0,1,444.88,120.1Z"/></g></g></svg>